<?xml version="1.0" encoding="UTF-8" standalone="no"?>
<!-- Created with Inkscape (http://www.inkscape.org/) -->

<svg
   width="300mm"
   height="220mm"
   viewBox="0 0 300 220"
   version="1.1"
   id="svg1"
   xml:space="preserve"
   inkscape:version="1.4.2 (ebf0e940d0, 2025-05-08)"
   sodipodi:docname="drawing.svg"
   xmlns:inkscape="http://www.inkscape.org/namespaces/inkscape"
   xmlns:sodipodi="http://sodipodi.sourceforge.net/DTD/sodipodi-0.dtd"
   xmlns="http://www.w3.org/2000/svg"
   xmlns:svg="http://www.w3.org/2000/svg"><sodipodi:namedview
     id="namedview1"
     pagecolor="#ffffff"
     bordercolor="#000000"
     borderopacity="0.25"
     inkscape:showpageshadow="2"
     inkscape:pageopacity="0.0"
     inkscape:pagecheckerboard="0"
     inkscape:deskcolor="#d1d1d1"
     inkscape:document-units="mm"
     inkscape:zoom="0.42299677"
     inkscape:cx="-213.94962"
     inkscape:cy="975.18475"
     inkscape:window-width="2880"
     inkscape:window-height="1551"
     inkscape:window-x="0"
     inkscape:window-y="0"
     inkscape:window-maximized="1"
     inkscape:current-layer="layer1" /><defs
     id="defs1"><marker
       style="overflow:visible"
       id="ArrowWideHeavy"
       refX="0"
       refY="0"
       orient="auto-start-reverse"
       inkscape:stockid="Wide, heavy arrow"
       markerWidth="1"
       markerHeight="1"
       viewBox="0 0 1 1"
       inkscape:isstock="true"
       inkscape:collect="always"
       preserveAspectRatio="xMidYMid"><path
         style="fill:context-stroke;fill-rule:evenodd;stroke:none"
         d="m 1,0 -3,3 h -2 l 3,-3 -3,-3 h 2 z"
         id="path15" /></marker><linearGradient
       id="gradientFill-1"
       x1="0.7414425"
       x2="590.86261"
       y1="3.6658268"
       y2="593.78699"
       gradientUnits="userSpaceOnUse"
       spreadMethod="pad"
       gradientTransform="scale(1.2219423,0.81836924)"><stop
         offset="0"
         stop-color="rgb(203,206,208)"
         stop-opacity="1"
         id="stop1" /><stop
         offset="1"
         stop-color="rgb(132,131,139)"
         stop-opacity="1"
         id="stop2" /></linearGradient><linearGradient
       id="gradientFill-2"
       x1="301.02603"
       x2="703.0675"
       y1="151.4006"
       y2="553.44208"
       gradientUnits="userSpaceOnUse"
       spreadMethod="pad"
       gradientTransform="scale(0.9899476,1.0101545)"><stop
         offset="0"
         stop-color="rgb(39,109,195)"
         stop-opacity="1"
         id="stop3" /><stop
         offset="1"
         stop-color="rgb(22,92,170)"
         stop-opacity="1"
         id="stop4" /></linearGradient><marker
       style="overflow:visible"
       id="ArrowWideHeavy-1"
       refX="0"
       refY="0"
       orient="auto-start-reverse"
       inkscape:stockid="Wide, heavy arrow"
       markerWidth="1"
       markerHeight="1"
       viewBox="0 0 1 1"
       inkscape:isstock="true"
       inkscape:collect="always"
       preserveAspectRatio="xMidYMid"><path
         style="fill:context-stroke;fill-rule:evenodd;stroke:none"
         d="m 1,0 -3,3 h -2 l 3,-3 -3,-3 h 2 z"
         id="path15-5" /></marker><marker
       style="overflow:visible"
       id="ArrowWideHeavy-9"
       refX="0"
       refY="0"
       orient="auto-start-reverse"
       inkscape:stockid="Wide, heavy arrow"
       markerWidth="1"
       markerHeight="1"
       viewBox="0 0 1 1"
       inkscape:isstock="true"
       inkscape:collect="always"
       preserveAspectRatio="xMidYMid"><path
         style="fill:context-stroke;fill-rule:evenodd;stroke:none"
         d="m 1,0 -3,3 h -2 l 3,-3 -3,-3 h 2 z"
         id="path15-8" /></marker><marker
       style="overflow:visible"
       id="ArrowWideHeavy-1-3"
       refX="0"
       refY="0"
       orient="auto-start-reverse"
       inkscape:stockid="Wide, heavy arrow"
       markerWidth="1"
       markerHeight="1"
       viewBox="0 0 1 1"
       inkscape:isstock="true"
       inkscape:collect="always"
       preserveAspectRatio="xMidYMid"><path
         style="fill:context-stroke;fill-rule:evenodd;stroke:none"
         d="m 1,0 -3,3 h -2 l 3,-3 -3,-3 h 2 z"
         id="path15-5-8" /></marker><marker
       style="overflow:visible"
       id="ArrowWideHeavy-1-3-3"
       refX="0"
       refY="0"
       orient="auto-start-reverse"
       inkscape:stockid="Wide, heavy arrow"
       markerWidth="1"
       markerHeight="1"
       viewBox="0 0 1 1"
       inkscape:isstock="true"
       inkscape:collect="always"
       preserveAspectRatio="xMidYMid"><path
         style="fill:context-stroke;fill-rule:evenodd;stroke:none"
         d="m 1,0 -3,3 h -2 l 3,-3 -3,-3 h 2 z"
         id="path15-5-8-4" /></marker><marker
       style="overflow:visible"
       id="ArrowWideHeavy-9-7"
       refX="0"
       refY="0"
       orient="auto-start-reverse"
       inkscape:stockid="Wide, heavy arrow"
       markerWidth="1"
       markerHeight="1"
       viewBox="0 0 1 1"
       inkscape:isstock="true"
       inkscape:collect="always"
       preserveAspectRatio="xMidYMid"><path
         style="fill:context-stroke;fill-rule:evenodd;stroke:none"
         d="m 1,0 -3,3 h -2 l 3,-3 -3,-3 h 2 z"
         id="path15-8-2" /></marker><marker
       style="overflow:visible"
       id="ArrowWideHeavy-1-3-3-4"
       refX="0"
       refY="0"
       orient="auto-start-reverse"
       inkscape:stockid="Wide, heavy arrow"
       markerWidth="1"
       markerHeight="1"
       viewBox="0 0 1 1"
       inkscape:isstock="true"
       inkscape:collect="always"
       preserveAspectRatio="xMidYMid"><path
         style="fill:context-stroke;fill-rule:evenodd;stroke:none"
         d="m 1,0 -3,3 h -2 l 3,-3 -3,-3 h 2 z"
         id="path15-5-8-4-7" /></marker><marker
       style="overflow:visible"
       id="ArrowWideHeavy-1-3-3-3"
       refX="0"
       refY="0"
       orient="auto-start-reverse"
       inkscape:stockid="Wide, heavy arrow"
       markerWidth="1"
       markerHeight="1"
       viewBox="0 0 1 1"
       inkscape:isstock="true"
       inkscape:collect="always"
       preserveAspectRatio="xMidYMid"><path
         style="fill:context-stroke;fill-rule:evenodd;stroke:none"
         d="m 1,0 -3,3 h -2 l 3,-3 -3,-3 h 2 z"
         id="path15-5-8-4-3" /></marker></defs><g
     inkscape:label="Layer 1"
     inkscape:groupmode="layer"
     id="layer1"><g
       id="g1"
       transform="matrix(0.08512835,0,0,0.08512835,29.410038,9.8879167)"
       inkscape:export-filename="flow.png"
       inkscape:export-xdpi="96"
       inkscape:export-ydpi="96"><path
         d="M 361.453,485.937 C 162.329,485.937 0.906,377.828 0.906,244.469 0.906,111.109 162.329,3 361.453,3 560.578,3 722,111.109 722,244.469 722,377.828 560.578,485.937 361.453,485.937 Z M 416.641,97.406 c -151.352,0 -274.047,73.908 -274.047,165.078 0,91.17 122.695,165.078 274.047,165.078 151.351,0 263.046,-50.529 263.046,-165.078 0,-114.513 -111.695,-165.078 -263.046,-165.078 z"
         fill="url(#gradientFill-1)"
         fill-rule="evenodd"
         id="path4"
         style="fill:url(#gradientFill-1)" /><path
         d="m 550,377 c 0,0 21.822,6.585 34.5,13 4.399,2.226 12.01,6.668 17.5,12.5 5.378,5.712 8,11.5 8,11.5 L 696,559 557,559.062 492,437 c 0,0 -13.31,-22.869 -21.5,-29.5 -6.832,-5.531 -9.745,-7.5 -16.5,-7.5 -4.702,0 -33.026,0 -33.026,0 L 421,558.974 298,559.026 V 152.938 h 247 c 0,0 112.5,2.029 112.5,109.062 0,107.033 -107.5,115 -107.5,115 z m -53.5,-135.976 -74.463,-0.048 -0.037,69.05 74.5,-0.024 c 0,0 34.5,-0.107 34.5,-35.125 0,-35.722 -34.5,-33.853 -34.5,-33.853 z"
         fill="url(#gradientFill-2)"
         fill-rule="evenodd"
         id="path5"
         style="fill:url(#gradientFill-2)" /></g><g
       id="g5"
       transform="matrix(1.0365073,0,0,1.0365073,1.6328913,-71.038552)"><text
         xml:space="preserve"
         style="font-weight:bold;font-size:8.46667px;line-height:1.85;font-family:Roboto;-inkscape-font-specification:'Roboto, Bold';text-align:end;writing-mode:lr-tb;direction:ltr;text-anchor:end;fill:#b4637a;stroke:#008000;stroke-width:1.4;stroke-linecap:round;stroke-linejoin:round"
         x="53.823498"
         y="155.22252"
         id="text1-1-2-9-4-8"><tspan
           sodipodi:role="line"
           id="tspan1-9-0-0-0-0"
           style="font-style:normal;font-variant:normal;font-weight:bold;font-stretch:normal;font-size:8.46667px;font-family:'Ubuntu Mono';-inkscape-font-specification:'Ubuntu Mono, Bold';font-variant-ligatures:normal;font-variant-caps:normal;font-variant-numeric:normal;font-variant-east-asian:normal;fill:#333333;stroke:none;stroke-width:1.4"
           x="53.823498"
           y="155.22252">GDAL</tspan><tspan
           sodipodi:role="line"
           style="font-style:normal;font-variant:normal;font-weight:bold;font-stretch:normal;font-size:8.46667px;font-family:'Ubuntu Mono';-inkscape-font-specification:'Ubuntu Mono, Bold';font-variant-ligatures:normal;font-variant-caps:normal;font-variant-numeric:normal;font-variant-east-asian:normal;fill:#333333;stroke:none;stroke-width:1.4"
           x="53.823498"
           y="170.88586"
           id="tspan2-6-9" /></text><text
         xml:space="preserve"
         style="font-weight:bold;font-size:8.46667px;line-height:1.85;font-family:Roboto;-inkscape-font-specification:'Roboto, Bold';text-align:end;writing-mode:lr-tb;direction:ltr;text-anchor:end;fill:#b4637a;stroke:#008000;stroke-width:1.4;stroke-linecap:round;stroke-linejoin:round"
         x="53.823498"
         y="175.1167"
         id="text1-1-2-9-4-8-2"><tspan
           sodipodi:role="line"
           id="tspan1-9-0-0-0-0-4"
           style="font-style:normal;font-variant:normal;font-weight:bold;font-stretch:normal;font-size:8.46667px;font-family:'Ubuntu Mono';-inkscape-font-specification:'Ubuntu Mono, Bold';font-variant-ligatures:normal;font-variant-caps:normal;font-variant-numeric:normal;font-variant-east-asian:normal;fill:#333333;stroke:none;stroke-width:1.4"
           x="53.823498"
           y="175.1167">GEOS</tspan><tspan
           sodipodi:role="line"
           style="font-style:normal;font-variant:normal;font-weight:bold;font-stretch:normal;font-size:8.46667px;font-family:'Ubuntu Mono';-inkscape-font-specification:'Ubuntu Mono, Bold';font-variant-ligatures:normal;font-variant-caps:normal;font-variant-numeric:normal;font-variant-east-asian:normal;fill:#333333;stroke:none;stroke-width:1.4"
           x="53.823498"
           y="190.78004"
           id="tspan2-6-9-3" /></text><text
         xml:space="preserve"
         style="font-weight:bold;font-size:8.46667px;line-height:1.85;font-family:Roboto;-inkscape-font-specification:'Roboto, Bold';text-align:end;writing-mode:lr-tb;direction:ltr;text-anchor:end;fill:#b4637a;stroke:#008000;stroke-width:1.4;stroke-linecap:round;stroke-linejoin:round"
         x="54.026699"
         y="165.16962"
         id="text1-1-2-9-4-8-2-4"><tspan
           sodipodi:role="line"
           id="tspan1-9-0-0-0-0-4-1"
           style="font-style:normal;font-variant:normal;font-weight:bold;font-stretch:normal;font-size:8.46667px;font-family:'Ubuntu Mono';-inkscape-font-specification:'Ubuntu Mono, Bold';font-variant-ligatures:normal;font-variant-caps:normal;font-variant-numeric:normal;font-variant-east-asian:normal;fill:#333333;stroke:none;stroke-width:1.4"
           x="54.026699"
           y="165.16962">PROJ</tspan><tspan
           sodipodi:role="line"
           style="font-style:normal;font-variant:normal;font-weight:bold;font-stretch:normal;font-size:8.46667px;font-family:'Ubuntu Mono';-inkscape-font-specification:'Ubuntu Mono, Bold';font-variant-ligatures:normal;font-variant-caps:normal;font-variant-numeric:normal;font-variant-east-asian:normal;fill:#333333;stroke:none;stroke-width:1.4"
           x="54.026699"
           y="180.83296"
           id="tspan2-6-9-3-7" /></text><text
         xml:space="preserve"
         style="font-weight:bold;font-size:8.46667px;line-height:1.85;font-family:Roboto;-inkscape-font-specification:'Roboto, Bold';text-align:end;writing-mode:lr-tb;direction:ltr;text-anchor:end;fill:#b4637a;stroke:#008000;stroke-width:1.4;stroke-linecap:round;stroke-linejoin:round"
         x="53.704964"
         y="185.0638"
         id="text1-1-2-9-4-8-2-0"><tspan
           sodipodi:role="line"
           id="tspan1-9-0-0-0-0-4-2"
           style="font-style:normal;font-variant:normal;font-weight:bold;font-stretch:normal;font-size:8.46667px;font-family:'Ubuntu Mono';-inkscape-font-specification:'Ubuntu Mono, Bold';font-variant-ligatures:normal;font-variant-caps:normal;font-variant-numeric:normal;font-variant-east-asian:normal;fill:#333333;stroke:none;stroke-width:1.4"
           x="53.704964"
           y="185.0638">S2Geometry</tspan><tspan
           sodipodi:role="line"
           style="font-style:normal;font-variant:normal;font-weight:bold;font-stretch:normal;font-size:8.46667px;font-family:'Ubuntu Mono';-inkscape-font-specification:'Ubuntu Mono, Bold';font-variant-ligatures:normal;font-variant-caps:normal;font-variant-numeric:normal;font-variant-east-asian:normal;fill:#333333;stroke:none;stroke-width:1.4"
           x="53.704964"
           y="200.72714"
           id="tspan2-6-9-3-1" /></text></g><g
       id="g8"
       transform="matrix(1.0365073,0,0,1.0365073,13.896088,-70.350892)"><g
         id="g6"
         transform="translate(12.779108,-0.22114669)"><text
           xml:space="preserve"
           style="font-weight:bold;font-size:8.46667px;line-height:1.85;font-family:Roboto;-inkscape-font-specification:'Roboto, Bold';text-align:end;writing-mode:lr-tb;direction:ltr;text-anchor:end;fill:#b4637a;stroke:#008000;stroke-width:1.4;stroke-linecap:round;stroke-linejoin:round"
           x="90.95192"
           y="160.10114"
           id="text1"><tspan
             sodipodi:role="line"
             id="tspan1"
             style="font-style:normal;font-variant:normal;font-weight:bold;font-stretch:normal;font-size:8.46667px;font-family:'Ubuntu Mono';-inkscape-font-specification:'Ubuntu Mono, Bold';font-variant-ligatures:normal;font-variant-caps:normal;font-variant-numeric:normal;font-variant-east-asian:normal;fill:#333333;stroke:none;stroke-width:1.4"
             x="90.95192"
             y="160.10114">sf</tspan></text><text
           xml:space="preserve"
           style="font-weight:bold;font-size:8.46667px;line-height:1.85;font-family:Roboto;-inkscape-font-specification:'Roboto, Bold';text-align:end;writing-mode:lr-tb;direction:ltr;text-anchor:end;fill:#b4637a;stroke:#008000;stroke-width:1.4;stroke-linecap:round;stroke-linejoin:round"
           x="91.426048"
           y="170.74106"
           id="text1-0"><tspan
             sodipodi:role="line"
             id="tspan1-1"
             style="font-style:normal;font-variant:normal;font-weight:bold;font-stretch:normal;font-size:8.46667px;font-family:'Ubuntu Mono';-inkscape-font-specification:'Ubuntu Mono, Bold';font-variant-ligatures:normal;font-variant-caps:normal;font-variant-numeric:normal;font-variant-east-asian:normal;fill:#333333;stroke:none;stroke-width:1.4"
             x="91.426048"
             y="170.74106">stars</tspan></text><text
           xml:space="preserve"
           style="font-weight:bold;font-size:8.46667px;line-height:1.85;font-family:Roboto;-inkscape-font-specification:'Roboto, Bold';text-align:end;writing-mode:lr-tb;direction:ltr;text-anchor:end;fill:#b4637a;stroke:#008000;stroke-width:1.4;stroke-linecap:round;stroke-linejoin:round"
           x="91.434517"
           y="181.38098"
           id="text1-1"><tspan
             sodipodi:role="line"
             id="tspan1-9"
             style="font-style:normal;font-variant:normal;font-weight:bold;font-stretch:normal;font-size:8.46667px;font-family:'Ubuntu Mono';-inkscape-font-specification:'Ubuntu Mono, Bold';font-variant-ligatures:normal;font-variant-caps:normal;font-variant-numeric:normal;font-variant-east-asian:normal;fill:#333333;stroke:none;stroke-width:1.4"
             x="91.434517"
             y="181.38098">terra</tspan></text></g><path
         d="m 127.8974,160.63538 c 0.39154,-0.34743 0.54596,-0.89338 0.34191,-1.37867 -0.12684,-0.29228 -0.26471,-0.57904 -0.41912,-0.85478 l -0.17095,-0.29779 c -0.16544,-0.27573 -0.34742,-0.54595 -0.54044,-0.80514 -0.31433,-0.41913 -0.8658,-0.55698 -1.36213,-0.39155 l -1.55514,0.51287 c -0.59007,-0.4853 -1.26838,-0.88235 -1.99631,-1.15258 l -0.33641,-1.59925 c -0.10482,-0.51287 -0.50183,-0.92096 -1.02021,-0.98162 -0.36396,-0.0496 -0.73345,-0.0717 -1.10846,-0.0717 h -0.0386 c -0.375,0 -0.74449,0.0221 -1.10846,0.0662 -0.51838,0.0607 -0.91544,0.47427 -1.02021,0.98163 l -0.3364,1.60476 c -0.73346,0.27574 -1.40624,0.66728 -1.99631,1.15258 l -1.56066,-0.50736 c -0.49633,-0.16544 -1.04779,-0.0276 -1.36213,0.39154 -0.19301,0.25919 -0.375,0.52941 -0.54596,0.80515 l -0.16544,0.29228 c -0.15441,0.27574 -0.29228,0.5625 -0.41911,0.8603 -0.20404,0.47977 -0.0496,1.02572 0.34191,1.37867 l 1.22427,1.0919 c -0.0607,0.36949 -0.0938,0.75551 -0.0938,1.14705 0,0.39155 0.0331,0.77757 0.0938,1.15257 l -1.22427,1.09191 c -0.39154,0.34743 -0.54595,0.89338 -0.34191,1.37867 0.12683,0.29228 0.2647,0.57904 0.41911,0.8603 l 0.16544,0.28676 c 0.16545,0.28125 0.34743,0.54595 0.54596,0.80515 0.31434,0.41911 0.8658,0.55698 1.36213,0.39154 l 1.55514,-0.51287 c 0.59007,0.48529 1.26837,0.88235 1.99632,1.15257 l 0.33639,1.60478 c 0.10482,0.51286 0.50183,0.92095 1.02022,0.98161 0.36948,0.0441 0.74448,0.0662 1.125,0.0662 0.38052,0 0.75551,-0.0221 1.12499,-0.0662 0.51838,-0.0607 0.91543,-0.47426 1.02022,-0.98161 l 0.33639,-1.60478 c 0.73346,-0.27574 1.40626,-0.66728 1.99632,-1.15257 l 1.55515,0.51287 c 0.49631,0.16544 1.04779,0.0276 1.36212,-0.39154 0.19301,-0.2592 0.375,-0.5239 0.54044,-0.80515 l 0.17096,-0.2978 c 0.15441,-0.27572 0.29228,-0.5625 0.41911,-0.85478 0.20404,-0.47977 0.0496,-1.02572 -0.34191,-1.37867 l -1.22427,-1.0919 c 0.0607,-0.375 0.0938,-0.76103 0.0938,-1.15257 0,-0.39155 -0.0331,-0.77757 -0.0938,-1.15257 l 1.22427,-1.09191 z m -10.83636,2.24448 a 2.6470518,2.6470518 0 1 1 5.2941,0 2.6470518,2.6470518 0 1 1 -5.2941,0 z m 21.65617,17.89516 c 0.34743,0.39154 0.89339,0.54595 1.37867,0.34191 0.29228,-0.12685 0.57905,-0.26471 0.85478,-0.41913 l 0.2978,-0.17095 c 0.27573,-0.16544 0.54594,-0.34742 0.80514,-0.54044 0.41912,-0.31433 0.55699,-0.8658 0.39154,-1.36213 l -0.51287,-1.55513 c 0.4853,-0.59008 0.88236,-1.26838 1.15258,-1.99632 l 1.60476,-0.33639 c 0.51287,-0.10482 0.92096,-0.50184 0.98163,-1.02023 0.0441,-0.36948 0.0662,-0.74448 0.0662,-1.12499 0,-0.38051 -0.0221,-0.75551 -0.0662,-1.12499 -0.0607,-0.51839 -0.47427,-0.91545 -0.98163,-1.02022 l -1.60476,-0.34191 c -0.27574,-0.73345 -0.66728,-1.40625 -1.15258,-1.99632 l 0.51287,-1.55514 c 0.16545,-0.49633 0.0276,-1.04779 -0.39154,-1.36213 -0.2592,-0.19301 -0.52941,-0.375 -0.80514,-0.54596 l -0.29228,-0.16543 c -0.27574,-0.15442 -0.5625,-0.29228 -0.8603,-0.41912 -0.47978,-0.20404 -1.02573,-0.0497 -1.37867,0.34191 l -1.09191,1.22426 c -0.375,-0.0607 -0.76102,-0.0938 -1.15256,-0.0938 -0.39155,0 -0.77757,0.0331 -1.15257,0.0938 l -1.09191,-1.22426 c -0.34743,-0.39154 -0.89338,-0.54595 -1.37867,-0.34191 -0.29228,0.12684 -0.57904,0.2647 -0.8603,0.41912 l -0.28676,0.16543 c -0.28124,0.16545 -0.54595,0.34743 -0.80515,0.54596 -0.41911,0.31434 -0.55698,0.8658 -0.39153,1.36213 l 0.51286,1.55514 c -0.48529,0.59007 -0.88235,1.26837 -1.15257,1.99632 l -1.60477,0.33087 c -0.51287,0.10482 -0.92096,0.50185 -0.98162,1.02022 -0.0441,0.36949 -0.0662,0.74449 -0.0662,1.125 0,0.38052 0.0221,0.75551 0.0662,1.12499 0.0607,0.51839 0.47427,0.91544 0.98162,1.02022 l 1.60477,0.33639 c 0.27574,0.73346 0.66728,1.40626 1.15257,1.99632 l -0.51286,1.55515 c -0.16545,0.49632 -0.0276,1.04778 0.39153,1.36213 0.2592,0.193 0.52391,0.375 0.80515,0.54043 l 0.2978,0.17096 c 0.27573,0.15441 0.5625,0.29228 0.85478,0.41911 0.47977,0.20404 1.02572,0.0497 1.37867,-0.3419 l 1.0919,-1.22427 c 0.375,0.0607 0.76103,0.0938 1.15257,0.0938 0.39155,0 0.77757,-0.0331 1.15257,-0.0938 l 1.09191,1.22427 z m -2.24447,-10.83637 a 2.6470502,2.6470502 0 1 1 0,5.2941 2.6470502,2.6470502 0 1 1 0,-5.2941 z"
         id="path1"
         style="fill:#185ead;fill-opacity:1;stroke-width:0.0551468" /></g><g
       id="g11"
       transform="matrix(1.0365073,0,0,1.0365073,52.474673,-56.207197)"><text
         xml:space="preserve"
         style="font-weight:bold;font-size:8.46667px;line-height:1.85;font-family:Roboto;-inkscape-font-specification:'Roboto, Bold';text-align:end;writing-mode:lr-tb;direction:ltr;text-anchor:end;fill:#b4637a;stroke:#008000;stroke-width:1.4;stroke-linecap:round;stroke-linejoin:round"
         x="222.37582"
         y="150.88751"
         id="text1-1-2-9-4"><tspan
           sodipodi:role="line"
           id="tspan1-9-0-0-0"
           style="font-style:normal;font-variant:normal;font-weight:bold;font-stretch:normal;font-size:8.46667px;font-family:'Ubuntu Mono';-inkscape-font-specification:'Ubuntu Mono, Bold';font-variant-ligatures:normal;font-variant-caps:normal;font-variant-numeric:normal;font-variant-east-asian:normal;fill:#333333;stroke:none;stroke-width:1.4"
           x="222.37582"
           y="150.88751">mapsf</tspan><tspan
           sodipodi:role="line"
           style="font-style:normal;font-variant:normal;font-weight:bold;font-stretch:normal;font-size:8.46667px;font-family:'Ubuntu Mono';-inkscape-font-specification:'Ubuntu Mono, Bold';font-variant-ligatures:normal;font-variant-caps:normal;font-variant-numeric:normal;font-variant-east-asian:normal;fill:#333333;stroke:none;stroke-width:1.4"
           x="222.37582"
           y="166.55086"
           id="tspan2-6" /></text><text
         xml:space="preserve"
         style="font-weight:bold;font-size:8.46667px;line-height:1.85;font-family:Roboto;-inkscape-font-specification:'Roboto, Bold';text-align:end;writing-mode:lr-tb;direction:ltr;text-anchor:end;fill:#b4637a;stroke:#008000;stroke-width:1.4;stroke-linecap:round;stroke-linejoin:round"
         x="227.07483"
         y="139.91266"
         id="text1-1-2-9-4-7"><tspan
           sodipodi:role="line"
           id="tspan1-9-0-0-0-2"
           style="font-style:normal;font-variant:normal;font-weight:bold;font-stretch:normal;font-size:8.46667px;font-family:'Ubuntu Mono';-inkscape-font-specification:'Ubuntu Mono, Bold';font-variant-ligatures:normal;font-variant-caps:normal;font-variant-numeric:normal;font-variant-east-asian:normal;fill:#333333;stroke:none;stroke-width:1.4"
           x="227.07483"
           y="139.91266">ggplot</tspan><tspan
           sodipodi:role="line"
           style="font-style:normal;font-variant:normal;font-weight:bold;font-stretch:normal;font-size:8.46667px;font-family:'Ubuntu Mono';-inkscape-font-specification:'Ubuntu Mono, Bold';font-variant-ligatures:normal;font-variant-caps:normal;font-variant-numeric:normal;font-variant-east-asian:normal;fill:#333333;stroke:none;stroke-width:1.4"
           x="227.07483"
           y="155.576"
           id="tspan2-6-6" /></text></g><g
       id="g12"
       transform="matrix(1.0365073,0,0,1.0365073,-20.027738,-29.654627)"><text
         xml:space="preserve"
         style="font-weight:bold;font-size:8.46667px;line-height:1.85;font-family:Roboto;-inkscape-font-specification:'Roboto, Bold';text-align:end;writing-mode:lr-tb;direction:ltr;text-anchor:end;fill:#b4637a;stroke:#008000;stroke-width:1.4;stroke-linecap:round;stroke-linejoin:round"
         x="301.73953"
         y="140.67889"
         id="text1-1-2-9-4-5"><tspan
           sodipodi:role="line"
           id="tspan1-9-0-0-0-8"
           style="font-style:normal;font-variant:normal;font-weight:bold;font-stretch:normal;font-size:8.46667px;font-family:'Ubuntu Mono';-inkscape-font-specification:'Ubuntu Mono, Bold';font-variant-ligatures:normal;font-variant-caps:normal;font-variant-numeric:normal;font-variant-east-asian:normal;fill:#333333;stroke:none;stroke-width:1.4"
           x="301.73953"
           y="140.67889">leaflet</tspan><tspan
           sodipodi:role="line"
           style="font-style:normal;font-variant:normal;font-weight:bold;font-stretch:normal;font-size:8.46667px;font-family:'Ubuntu Mono';-inkscape-font-specification:'Ubuntu Mono, Bold';font-variant-ligatures:normal;font-variant-caps:normal;font-variant-numeric:normal;font-variant-east-asian:normal;fill:#333333;stroke:none;stroke-width:1.4"
           x="301.73953"
           y="156.34224"
           id="tspan2-6-2" /></text><text
         xml:space="preserve"
         style="font-weight:bold;font-size:8.46667px;line-height:1.85;font-family:Roboto;-inkscape-font-specification:'Roboto, Bold';text-align:end;writing-mode:lr-tb;direction:ltr;text-anchor:end;fill:#b4637a;stroke:#008000;stroke-width:1.4;stroke-linecap:round;stroke-linejoin:round"
         x="301.80725"
         y="150.84518"
         id="text1-1-2-9-4-5-4"><tspan
           sodipodi:role="line"
           id="tspan1-9-0-0-0-8-6"
           style="font-style:normal;font-variant:normal;font-weight:bold;font-stretch:normal;font-size:8.46667px;font-family:'Ubuntu Mono';-inkscape-font-specification:'Ubuntu Mono, Bold';font-variant-ligatures:normal;font-variant-caps:normal;font-variant-numeric:normal;font-variant-east-asian:normal;fill:#333333;stroke:none;stroke-width:1.4"
           x="301.80725"
           y="150.84518">mapview</tspan><tspan
           sodipodi:role="line"
           style="font-style:normal;font-variant:normal;font-weight:bold;font-stretch:normal;font-size:8.46667px;font-family:'Ubuntu Mono';-inkscape-font-specification:'Ubuntu Mono, Bold';font-variant-ligatures:normal;font-variant-caps:normal;font-variant-numeric:normal;font-variant-east-asian:normal;fill:#333333;stroke:none;stroke-width:1.4"
           x="301.80725"
           y="166.50853"
           id="tspan2-6-2-2" /></text></g><path
       d="m 224.49423,94.085321 c 1.00795,0 1.82229,0.886774 1.82229,1.984383 v 20.836006 c 0,0.5457 0.41003,0.99219 0.91115,0.99219 h 22.77873 c 1.00795,0 1.82228,0.88676 1.82228,1.98438 0,1.09761 -0.81433,1.98438 -1.82228,1.98438 h -22.77873 c -2.51704,0 -4.55574,-2.22002 -4.55574,-4.96095 V 96.069704 c 0,-1.097609 0.81434,-1.984383 1.8223,-1.984383 z m 7.28919,11.906289 c 1.00795,0 1.82229,0.88678 1.82229,1.98439 v 3.96875 c 0,1.09762 -0.81434,1.98438 -1.82229,1.98438 -1.00796,0 -1.82231,-0.88676 -1.82231,-1.98438 V 107.976 c 0,-1.09761 0.81435,-1.98439 1.82231,-1.98439 z m 7.28919,-3.96876 v 9.9219 c 0,1.09762 -0.81433,1.98438 -1.8223,1.98438 -1.00796,0 -1.82229,-0.88676 -1.82229,-1.98438 v -9.9219 c 0,-1.09761 0.81433,-1.98439 1.82229,-1.98439 1.00797,0 1.8223,0.88678 1.8223,1.98439 z m 3.64461,1.98438 c 1.00794,0 1.82229,0.88678 1.82229,1.98438 v 5.95314 c 0,1.09762 -0.81435,1.98438 -1.82229,1.98438 -1.00797,0 -1.82231,-0.88676 -1.82231,-1.98438 v -5.95314 c 0,-1.0976 0.81434,-1.98438 1.82231,-1.98438 z m 7.28918,-5.953143 v 13.890663 c 0,1.09762 -0.81436,1.98438 -1.8223,1.98438 -1.00795,0 -1.82229,-0.88676 -1.82229,-1.98438 V 98.054087 c 0,-1.09762 0.81434,-1.984383 1.82229,-1.984383 1.00794,0 1.8223,0.886763 1.8223,1.984383 z"
       id="path1-9"
       style="fill:#185ead;fill-opacity:1;stroke-width:0.0594254" /><g
       id="g10"
       transform="matrix(1.0365073,0,0,1.0365073,24.748094,-67.600249)"><g
         id="g9"><text
           xml:space="preserve"
           style="font-weight:bold;font-size:8.46667px;line-height:1.85;font-family:Roboto;-inkscape-font-specification:'Roboto, Bold';text-align:end;writing-mode:lr-tb;direction:ltr;text-anchor:end;fill:#b4637a;stroke:#008000;stroke-width:1.4;stroke-linecap:round;stroke-linejoin:round"
           x="170.21626"
           y="93.773071"
           id="text1-1-2"><tspan
             sodipodi:role="line"
             id="tspan1-9-0"
             style="font-style:normal;font-variant:normal;font-weight:bold;font-stretch:normal;font-size:8.46667px;font-family:'Ubuntu Mono';-inkscape-font-specification:'Ubuntu Mono, Bold';font-variant-ligatures:normal;font-variant-caps:normal;font-variant-numeric:normal;font-variant-east-asian:normal;fill:#333333;stroke:none;stroke-width:1.4"
             x="170.21626"
             y="93.773071">geodata</tspan></text><text
           xml:space="preserve"
           style="font-weight:bold;font-size:8.46667px;line-height:1.85;font-family:Roboto;-inkscape-font-specification:'Roboto, Bold';text-align:end;writing-mode:lr-tb;direction:ltr;text-anchor:end;fill:#b4637a;stroke:#008000;stroke-width:1.4;stroke-linecap:round;stroke-linejoin:round"
           x="174.42419"
           y="104.29656"
           id="text1-1-2-0"><tspan
             sodipodi:role="line"
             id="tspan1-9-0-4"
             style="font-style:normal;font-variant:normal;font-weight:bold;font-stretch:normal;font-size:8.46667px;font-family:'Ubuntu Mono';-inkscape-font-specification:'Ubuntu Mono, Bold';font-variant-ligatures:normal;font-variant-caps:normal;font-variant-numeric:normal;font-variant-east-asian:normal;fill:#333333;stroke:none;stroke-width:1.4"
             x="174.42419"
             y="104.29656">rpostgis</tspan></text><text
           xml:space="preserve"
           style="font-weight:bold;font-size:8.46667px;line-height:1.85;font-family:Roboto;-inkscape-font-specification:'Roboto, Bold';text-align:end;writing-mode:lr-tb;direction:ltr;text-anchor:end;fill:#b4637a;stroke:#008000;stroke-width:1.4;stroke-linecap:round;stroke-linejoin:round"
           x="160.77592"
           y="84.621185"
           id="text1-1-2-9"><tspan
             sodipodi:role="line"
             id="tspan1-9-0-0"
             style="font-style:normal;font-variant:normal;font-weight:bold;font-stretch:normal;font-size:8.46667px;font-family:'Ubuntu Mono';-inkscape-font-specification:'Ubuntu Mono, Bold';font-variant-ligatures:normal;font-variant-caps:normal;font-variant-numeric:normal;font-variant-east-asian:normal;fill:#333333;stroke:none;stroke-width:1.4"
             x="160.77592"
             y="84.621185">move2</tspan><tspan
             sodipodi:role="line"
             style="font-style:normal;font-variant:normal;font-weight:bold;font-stretch:normal;font-size:8.46667px;font-family:'Ubuntu Mono';-inkscape-font-specification:'Ubuntu Mono, Bold';font-variant-ligatures:normal;font-variant-caps:normal;font-variant-numeric:normal;font-variant-east-asian:normal;fill:#333333;stroke:none;stroke-width:1.4"
             x="160.77592"
             y="100.28452"
             id="tspan2" /></text></g><path
         d="m 130.30407,83.285532 v 2.495 c 0,2.29749 -5.21352,4.15834 -11.64335,4.15834 -6.42984,0 -11.64336,-1.86085 -11.64336,-4.15834 v -2.495 c 0,-2.29748 5.21352,-4.15834 11.64336,-4.15834 6.42983,0 11.64335,1.86086 11.64335,4.15834 z m -2.84846,7.0016 c 1.08116,-0.38464 2.07397,-0.87845 2.84846,-1.4866 v 5.29668 c 0,2.29749 -5.21352,4.15835 -11.64335,4.15835 -6.42984,0 -11.64336,-1.86086 -11.64336,-4.15835 v -5.29668 c 0.77449,0.61335 1.76729,1.10196 2.84846,1.4866 2.33387,0.83167 5.44223,1.31508 8.7949,1.31508 3.35266,0 6.46102,-0.48341 8.79489,-1.31508 z m -20.43825,6.83008 c 0.77449,0.61335 1.76729,1.10196 2.84846,1.48661 2.33387,0.83167 5.44223,1.31507 8.7949,1.31507 3.35266,0 6.46102,-0.4834 8.79489,-1.31507 1.08116,-0.38465 2.07397,-0.87845 2.84846,-1.48661 v 4.465018 c 0,2.29748 -5.21352,4.15834 -11.64335,4.15834 -6.42984,0 -11.64336,-1.86086 -11.64336,-4.15834 z"
         id="path1-7"
         style="fill:#185ead;fill-opacity:1;stroke-width:0.0519792" /></g><g
       id="g4"
       transform="matrix(1.0365073,0,0,1.0365073,22.188934,-59.110889)"><g
         id="g3"
         transform="translate(1.8764919,-0.62549729)"><text
           xml:space="preserve"
           style="font-weight:bold;font-size:8.46667px;line-height:1.85;font-family:Roboto;-inkscape-font-specification:'Roboto, Bold';text-align:end;writing-mode:lr-tb;direction:ltr;text-anchor:end;fill:#b4637a;stroke:#008000;stroke-width:1.4;stroke-linecap:round;stroke-linejoin:round"
           x="100.98534"
           y="232.88028"
           id="text1-1-2-9-4-5-4-7-1"><tspan
             sodipodi:role="line"
             id="tspan1-9-0-0-0-8-6-0-0"
             style="font-style:normal;font-variant:normal;font-weight:bold;font-stretch:normal;font-size:8.46667px;font-family:'Ubuntu Mono';-inkscape-font-specification:'Ubuntu Mono, Bold';font-variant-ligatures:normal;font-variant-caps:normal;font-variant-numeric:normal;font-variant-east-asian:normal;fill:#333333;stroke:none;stroke-width:1.4"
             x="100.98534"
             y="232.88028">inlabru</tspan><tspan
             sodipodi:role="line"
             style="font-style:normal;font-variant:normal;font-weight:bold;font-stretch:normal;font-size:8.46667px;font-family:'Ubuntu Mono';-inkscape-font-specification:'Ubuntu Mono, Bold';font-variant-ligatures:normal;font-variant-caps:normal;font-variant-numeric:normal;font-variant-east-asian:normal;fill:#333333;stroke:none;stroke-width:1.4"
             x="100.98534"
             y="248.54362"
             id="tspan2-6-2-2-1-3" /></text><text
           xml:space="preserve"
           style="font-weight:bold;font-size:8.46667px;line-height:1.85;font-family:Roboto;-inkscape-font-specification:'Roboto, Bold';text-align:end;writing-mode:lr-tb;direction:ltr;text-anchor:end;fill:#b4637a;stroke:#008000;stroke-width:1.4;stroke-linecap:round;stroke-linejoin:round"
           x="100.6636"
           y="241.79129"
           id="text1-1-2-9-4-5-4-7-1-0"><tspan
             sodipodi:role="line"
             id="tspan1-9-0-0-0-8-6-0-0-4"
             style="font-style:normal;font-variant:normal;font-weight:bold;font-stretch:normal;font-size:8.46667px;font-family:'Ubuntu Mono';-inkscape-font-specification:'Ubuntu Mono, Bold';font-variant-ligatures:normal;font-variant-caps:normal;font-variant-numeric:normal;font-variant-east-asian:normal;fill:#333333;stroke:none;stroke-width:1.4"
             x="100.6636"
             y="241.79129">gstat</tspan><tspan
             sodipodi:role="line"
             style="font-style:normal;font-variant:normal;font-weight:bold;font-stretch:normal;font-size:8.46667px;font-family:'Ubuntu Mono';-inkscape-font-specification:'Ubuntu Mono, Bold';font-variant-ligatures:normal;font-variant-caps:normal;font-variant-numeric:normal;font-variant-east-asian:normal;fill:#333333;stroke:none;stroke-width:1.4"
             x="100.6636"
             y="257.45462"
             id="tspan2-6-2-2-1-3-6" /></text><text
           xml:space="preserve"
           style="font-weight:bold;font-size:8.46667px;line-height:1.85;font-family:Roboto;-inkscape-font-specification:'Roboto, Bold';text-align:end;writing-mode:lr-tb;direction:ltr;text-anchor:end;fill:#b4637a;stroke:#008000;stroke-width:1.4;stroke-linecap:round;stroke-linejoin:round"
           x="100.6382"
           y="252.95445"
           id="text1-1-2-9-4-5-4-7-2"><tspan
             sodipodi:role="line"
             id="tspan1-9-0-0-0-8-6-0-9"
             style="font-style:normal;font-variant:normal;font-weight:bold;font-stretch:normal;font-size:8.46667px;font-family:'Ubuntu Mono';-inkscape-font-specification:'Ubuntu Mono, Bold';font-variant-ligatures:normal;font-variant-caps:normal;font-variant-numeric:normal;font-variant-east-asian:normal;fill:#333333;stroke:none;stroke-width:1.4"
             x="100.6382"
             y="252.95445">lme4</tspan><tspan
             sodipodi:role="line"
             style="font-style:normal;font-variant:normal;font-weight:bold;font-stretch:normal;font-size:8.46667px;font-family:'Ubuntu Mono';-inkscape-font-specification:'Ubuntu Mono, Bold';font-variant-ligatures:normal;font-variant-caps:normal;font-variant-numeric:normal;font-variant-east-asian:normal;fill:#333333;stroke:none;stroke-width:1.4"
             x="100.6382"
             y="268.6178"
             id="tspan2-6-2-2-1-0" /></text></g><path
         d="m 114.24469,225.27756 c -1.89956,0 -3.44395,1.5444 -3.44395,3.44395 v 20.66373 c 0,1.89954 1.54439,3.44395 3.44395,3.44395 h 13.77581 c 1.89956,0 3.44395,-1.54441 3.44395,-3.44395 v -20.66373 c 0,-1.89955 -1.54439,-3.44395 -3.44395,-3.44395 z m 1.72197,3.44395 h 10.33186 c 0.95247,0 1.72198,0.76952 1.72198,1.72198 v 1.72198 c 0,0.95247 -0.76951,1.72197 -1.72198,1.72197 h -10.33186 c -0.95245,0 -1.72197,-0.7695 -1.72197,-1.72197 v -1.72198 c 0,-0.95246 0.76952,-1.72198 1.72197,-1.72198 z m 1.72198,8.60989 a 1.7219767,1.7219767 0 1 1 -3.44395,0 1.7219767,1.7219767 0 1 1 3.44395,0 z m -1.72198,6.8879 a 1.7219766,1.7219766 0 1 1 0,-3.44395 1.7219766,1.7219766 0 1 1 0,3.44395 z m -1.72197,3.44395 c 0,-0.95246 0.76952,-1.72197 1.72197,-1.72197 h 5.16594 c 0.95246,0 1.72197,0.76951 1.72197,1.72197 0,0.95247 -0.76951,1.72199 -1.72197,1.72199 h -5.16594 c -0.95245,0 -1.72197,-0.76952 -1.72197,-1.72199 z m 6.88791,-8.60988 a 1.7219766,1.7219766 0 1 1 0,-3.44395 1.7219766,1.7219766 0 1 1 0,3.44395 z m 1.72197,3.44395 a 1.7219805,1.7219805 0 1 1 -3.44396,0 1.7219805,1.7219805 0 1 1 3.44396,0 z m 3.44395,-3.44395 a 1.7219766,1.7219766 0 1 1 0,-3.44395 1.7219766,1.7219766 0 1 1 0,3.44395 z m 1.72198,3.44395 a 1.7219807,1.7219807 0 1 1 -3.44396,0 1.7219807,1.7219807 0 1 1 3.44396,0 z m -1.72198,6.88792 a 1.72198,1.72198 0 1 1 0,-3.44396 1.72198,1.72198 0 1 1 0,3.44396 z"
         id="path1-0"
         style="fill:#185ead;fill-opacity:1;stroke-width:0.0538117" /></g><g
       id="g2"
       transform="matrix(0.01555045,0,0,0.01555045,218.59972,164.67672)"><g
         id="Layer_1_00000016797738894439544970000003318810302168151739_">
	<g
   id="g7">
		<path
   class="st0"
   d="M 2420.5,669.8 1467.4,119.4 1260.5,0 1053.6,119.4 100.5,669.8 0,727.7 v 1455.5 l 100.5,58 965.1,557.2 195.2,112.5 195.2,-112.5 965.1,-557.2 99.8,-57.6 V 727.7 Z"
   id="path1-5" />
		<path
   class="st1"
   d="m 1260.5,2171.6 c 1,-1 2.1,-2.1 3.1,-3.1 h -1 c -0.4,1 -1.1,2.1 -2.1,3.1 z"
   id="path2" />
		<path
   class="st2"
   d="m 423.8,1568 v 0 c -11.3,-0.3 -3.8,0 0,0 z m -0.3,0 c -11,-0.3 -6.2,0 -2.4,0 h 5.8 -0.3 -3.1 c 2.4,0 3.4,0.4 0,0 z m 284.4,-167.4 c 23.6,-91.5 -87.4,-213.4 -96.6,-225 -0.1,-0.1 -0.2,-0.2 -0.3,-0.4 -133.2,-136.3 -64.7,-272.4 28.3,-257.4 66.9,11 32.3,109.1 68.3,118.7 h 0.7 c 21.6,2.1 63.8,-49.8 70,-67.3 24,-67.9 -114.6,-109.5 -156.8,-106.7 -84.7,5.1 -140.3,51.1 -174.3,127 -62.4,139.6 54.2,232.6 124.9,328.4 53.5,72.4 51.1,136.9 -14.4,199 -72,68.3 -145.2,-28.5 -154.8,-94.7 -8.6,-60.7 -18.5,-100.2 -69.3,-23 -47,71.7 18.5,159.7 77.7,169 14,1 234.4,49.3 296.6,-167.6 z m 920.5,383.9 c -325.2,29.5 -803.9,73.4 -904.7,425.5 -0.7,2.1 -2.4,3.1 -4.5,2.4 -1,-0.3 -1.7,-0.7 -2.1,-1.7 C 618.3,2041.9 406,1918 209,1923.9 c -2.1,0.3 -3.8,-0.7 -4.1,-2.7 -0.3,-2 0.7,-3.8 2.7,-4.1 507.1,-251.8 1025.1,-131.1 1572.7,-228.9 229.5,-60.1 372.1,-167.2 449.6,-349.4 12.9,-22.2 12.2,-56.5 -23.5,-32.1 -55.2,37.4 -106.1,91.6 -166.1,120.8 -2.7,1.4 -5.8,2.7 -8.9,3.8 -1,0.3 -1.7,1.4 -2.1,2.4 -173.9,396.8 -657.8,69.7 -89.9,-13 1.4,-0.3 2.4,-1.4 2.4,-2.4 l 32,-104 c 0.7,-2.1 -0.7,-3.8 -2.4,-4.5 -1.4,-0.3 -3.1,0.3 -3.8,1.4 -13,19.2 -27.4,37.4 -42.9,54.6 -20.2,21.3 -36,34.3 -48,39.1 -13.7,5.1 -28.1,8.2 -42.5,8.9 -17.2,1 -31.9,-5.8 -43.2,-20.2 -11.3,-14.4 -17.5,-35.7 -18.9,-63.8 -0.3,-4.5 -0.3,-9.6 0,-15.1 0.3,-2.1 -0.7,-3.8 -2.4,-4.5 -2.1,-0.3 -3.8,0.7 -4.5,2.4 -5.5,10.6 -11,20.6 -16.5,29.5 -16.1,28.1 -36.4,53.9 -59.4,76.9 -22.6,22.6 -44.6,34.7 -64.8,36 -38.1,2.4 -58.7,-19.2 -61.4,-64.5 -2.7,-43.2 14.4,-132.1 51.5,-264.5 2.1,-5.8 2.7,-12 2.4,-17.8 -0.7,-12 -7.5,-16.8 -21.6,-15.8 -16.1,1.4 -31.6,7.9 -44.3,18.5 -15.8,13.4 -28.8,29.9 -38.1,48.4 -11.3,20.6 -21.3,41.9 -30.5,63.5 -9.6,23.7 -17.5,48.4 -23.7,73.4 -6.9,27.8 -12.7,51.1 -16.5,69.3 -4.1,18.9 -7.9,38.8 -11.7,59.4 -2.7,14.4 -5.8,32.3 -6.5,35 l -0.7,2.7 c 0,0 -93.5,6.5 -94.3,6.2 -2,-16.8 16.7,-80.9 18.7,-90.6 -17.1,29.9 -23.8,39.4 -37.6,57.7 -8.9,11.3 -18.6,22.1 -28.8,32.3 -22.6,22.6 -44.6,34.7 -64.8,36 -1.4,0 -2.7,0 -4.1,0 -33.3,0 -52.1,-26.1 -55.2,-77.5 -0.7,-10.3 -1,-20.6 -0.7,-31.2 0.3,-2.1 -0.7,-3.8 -2.4,-4.5 -2.1,-0.3 -3.8,0.7 -4.5,2.4 -51.8,95 -98.5,143.1 -141.7,145.8 -38.1,2.4 -58.7,-20.2 -61.8,-67.6 -3.4,-52.5 11,-129.4 42.9,-228.2 6.9,-24.4 9.9,-41.2 9.3,-50.1 -1,-13.7 -7.2,-15.4 -12.4,-15.4 h -1.4 c -4.5,0.3 -14.1,3.1 -34.3,15.8 -17.8,11.7 -33.3,26.1 -46,42.9 -14.8,19.2 -26.4,40.8 -35,63.5 -8.9,24 -16.1,44.9 -21.3,62.4 -5.2,17.5 -10.3,39.1 -15.4,63.8 -5.1,24.7 -9.6,46 -13.7,61.8 -4.1,15.8 -8.2,34 -12.4,54.9 l -0.7,2.7 -90.6,5.8 c -2.1,0 -3.8,-1.4 -3.8,-3.4 0,-0.3 0,-0.7 0,-1.4 v 0 c 13.4,-46.3 32.3,-121.5 56.3,-223 24,-101.6 46,-182.9 63.8,-241.2 15.4,-50.8 33.6,-100.9 54.9,-149.3 16.5,-37.7 38.8,-73.1 65.9,-104.3 25.7,-28.8 54.6,-44.3 85.1,-46.3 32.3,-2.1 49.4,14.1 51.8,47.4 1.4,22.3 -5.1,52.2 -19.2,89.6 -25.7,66.2 -68.6,143.4 -128,229.5 -1.4,1.4 -1.4,3.8 0,5.1 1.4,1.3 3.8,1.4 5.1,0 10.3,-7.9 21.3,-15.1 32.9,-20.9 17.2,-8.9 36,-14.1 55.6,-15.8 36.7,-2.4 56.3,14.4 58.7,49.8 1,13 -0.3,26.1 -4.1,38.4 -3.4,11.3 -7.2,24.7 -11.7,39.5 -4.1,14.8 -7.5,27.1 -10.3,36.4 -2.7,9.6 -6.2,22.3 -10.6,38.4 -4.5,16.1 -7.9,30.2 -9.9,41.2 -6.2,27.8 -8.6,50.1 -7.5,66.2 1.4,20.6 9.6,20.6 12.4,20.6 h 1 c 34.7,-2.1 75.5,-62.4 121.8,-179.1 0.3,-0.7 0.3,-1 0.7,-1.7 10.6,-38.4 24,-76.2 40.1,-112.5 19.2,-42.2 42.5,-64.5 70,-66.2 l 54.9,-2.7 c 2.1,0 3.8,1.4 3.8,3.4 0,1 -0.3,2.1 -1,2.7 v 0 c -8.6,8.2 -19.9,30.2 -33.6,65.5 -14.4,38.1 -24.4,64.2 -30.9,81.7 -6.5,18.2 -14.1,42.9 -22,73.8 -7.9,30.9 -11.3,55.6 -9.9,74.1 1.7,24.4 11,24.4 14.1,24.4 h 1 c 4.8,-0.3 13.7,-3.8 29.8,-18.5 12.4,-11.3 23,-24 31.9,-38.1 8.2,-13.4 17.2,-30.2 27.1,-50.8 9.9,-20.6 18.5,-38.4 25.7,-53.5 7.9,-16.1 11,-21.6 13,-23.7 l 4.5,-8.2 c 16.8,-67.9 24.7,-115.6 23,-142.1 0,-4.5 -1,-8.9 -3.1,-13 v 0 c -1,-1.4 -1,-3.8 0.7,-4.8 0.7,-0.3 1.4,-0.7 2.1,-0.7 l 38.1,-2.4 c 22.3,-1.4 36.4,0 43.6,4.8 7.2,4.8 11.7,12.7 12,20.9 0,8.2 -0.7,16.8 -2.4,25 -0.3,2.1 1,3.8 3.1,4.1 1,0.3 2.4,-0.3 3.1,-1 42.9,-44.6 87.5,-68.6 133.5,-71.4 36.7,-2.4 56.6,15.1 58.7,51.8 0.7,11.7 0,23.3 -2.4,35 -2.4,11.7 -8.2,34.3 -18.5,69.3 -21.6,75.1 -31.9,125.6 -30.2,150.3 1,17.5 7.9,19.6 13,19.6 h 1 c 4.8,-0.3 13.7,-3.8 29.5,-18.9 12.4,-11.7 23,-24.7 32.3,-38.8 9.9,-16.1 19.2,-32.9 27.4,-50.1 9.9,-19.9 18.2,-37.7 25.4,-52.8 2.4,-5.5 4.5,-9.6 6.2,-13 0,-0.3 0.3,-0.3 0.3,-0.7 9.9,-41.9 21.6,-76.5 35,-103.3 15.4,-31.6 32.9,-52.5 51.5,-62.8 18.5,-10.3 43.9,-16.1 76.5,-18.2 v 0 c 4.1,-0.3 7.5,2.7 7.9,6.5 0,0.3 0,0.3 0,0.7 0.3,3.8 -1.7,7.9 -5.8,13 -23,25 -45.3,69.3 -66.9,131.8 -21.6,62.4 -30.9,114.9 -28.5,156.8 1.4,19.2 6.2,29.2 14.4,29.2 h 0.7 c 20.2,-1.4 46,-26.4 75.8,-74.8 29.2,-46 52.1,-95.4 68.6,-147.2 2.1,-6.9 4.8,-16.5 8.6,-29.5 3.8,-13 6.5,-21.6 7.9,-26.4 1.4,-4.8 4.1,-11.7 7.5,-20.2 2.3,-6.7 5.7,-12.8 9.7,-18.5 0.2,-0.3 0.4,-0.5 0.6,-0.8 2.7,-3 6.7,-7 11.3,-12 4.8,-5.1 10.3,-8.9 16.8,-11 16.1,-4.8 32.6,-7.9 49.4,-9.3 l 38.1,-2.4 c 1.7,-0.7 3.8,0.3 4.5,2.1 0.7,1.7 -0.3,3.8 -2.1,4.5 l -0.7,0.7 c -17.2,13.4 -34,45.3 -49.7,95 -13,42.2 -24,81.3 -32.6,116 -8.6,34.7 -14.1,55.9 -16.1,63.5 -2.1,7.5 -6.5,26.1 -13.4,54.2 -5.1,21.3 -9.6,38.8 -13.4,52.8 -0.7,1.7 0,3.8 1.7,4.5 1,0.3 2.4,0.3 3.4,-0.7 37.4,-22.3 71.7,-49.1 102.9,-79.6 17.5,-17.5 156.4,-164.1 156.4,-71.4 -8.7,344.1 -357.4,522.1 -682.6,551.6 z m -587,-972 c -13.4,0.7 -37.1,21.3 -72.7,113.2 -24.7,63.5 -48.7,135.9 -71.7,215.5 -0.7,2.1 0.7,3.8 2.4,4.5 1.4,0.3 3.1,0 4.1,-1.4 61.8,-94.4 104.6,-172.9 127.3,-234.3 14.1,-41.9 20.6,-69.7 19.9,-82 -1,-15.1 -6.9,-15.1 -8.6,-15.1 z m 885.7,657.5 c -14.3,2.7 -190.1,48 -172.3,86.9 20.3,44.1 138.9,-12.1 172.3,-86.9 z m -608.2,-452.3 v 0 c 22,-1 49.4,-9.3 55.9,-41.9 3.1,-14.8 -5.8,-31.6 -11.3,-36.4 -5.5,-4.8 -13,-6.9 -23,-6.2 -10,0.7 -22,6.9 -33.3,17.5 -15.1,14.1 -14.4,34.3 -9.6,47.7 4.5,11.4 12.4,18.9 21.3,19.3 z"
   id="path3" />
		<path
   class="st3"
   d="M 2287.7,676.6 C 2107.6,964.7 1715.1,1164.5 1260.1,1164.5 804.9,1164.5 412.8,965 232.5,677 l -95.9,55.3 -64.4,37.1 v 1371.9 l 64.3,37.1 965.1,557.2 159.1,91.7 159.1,-91.7 965.1,-557.2 63.7,-36.8 V 769.5 l -64.3,-37.1 z"
   id="path4-8" />
		
			<linearGradient
   id="SVGID_1_"
   gradientUnits="userSpaceOnUse"
   x1="1256.8513"
   y1="-1247.4922"
   x2="1261.5251"
   y2="418.99509"
   gradientTransform="translate(0,736.4382)">
			<stop
   offset="0"
   style="stop-color:#FFFFFF;stop-opacity:0.83"
   id="stop4-4" />
			<stop
   offset="0.56"
   style="stop-color:#FFFFFF;stop-opacity:0.37"
   id="stop5" />
			<stop
   offset="1"
   style="stop-color:#FFFFFF;stop-opacity:0"
   id="stop6" />
		</linearGradient>
		<path
   class="st4"
   d="m 1260.1,1152.8 c 455,0 847.5,-199.8 1027.6,-487.9 l -856.5,-494.6 -170.7,-98.5 -170.7,98.5 -857.2,495 c 180.3,288 572.3,487.5 1027.5,487.5 z"
   id="path6"
   style="fill:url(#SVGID_1_)" />
		<path
   class="st5"
   d="M 2420.5,669.8 1467.4,119.4 1260.5,0 1053.6,119.4 100.5,669.8 0,727.7 v 1455.5 l 100.5,58 965.1,557.2 195.2,112.5 195.2,-112.5 965.1,-557.2 99.8,-57.6 V 727.7 Z m 28.2,1472 -63.7,36.8 -965.1,557.2 -159.1,91.7 -159.1,-91.7 -965.1,-557.2 -64.3,-37.1 v -1372 l 64.4,-37.1 95.9,-55.3 857.2,-495 170.7,-98.5 170.7,98.5 856.5,494.6 96.6,55.8 64.3,37.1 z"
   id="path7" />
		<polygon
   class="st3"
   points="1431.2,182 2384.3,732.4 2287.7,676.6 "
   id="polygon7" />
	</g>
</g><g
         id="Layer_2_00000100375734305614562830000003601880053455265933_">
</g></g><path
       style="fill:#000000;fill-opacity:0;stroke:#185ead;stroke-width:2.07302;stroke-linecap:butt;stroke-linejoin:round;stroke-dasharray:none;stroke-opacity:1;marker-end:url(#ArrowWideHeavy)"
       d="m 154.63732,48.614365 -0.22923,33.007701"
       id="path14"
       sodipodi:nodetypes="cc" /><path
       style="fill:#000000;fill-opacity:0;stroke:#185ead;stroke-width:2.07302;stroke-linecap:butt;stroke-linejoin:round;stroke-dasharray:none;stroke-opacity:1;marker-end:url(#ArrowWideHeavy-1)"
       d="M 139.17378,83.676818 138.94455,50.669117"
       id="path14-5"
       sodipodi:nodetypes="cc" /><path
       style="fill:#000000;fill-opacity:0;stroke:#185ead;stroke-width:2.07302;stroke-linecap:butt;stroke-linejoin:round;stroke-dasharray:none;stroke-opacity:1;marker-end:url(#ArrowWideHeavy-9)"
       d="m 151.691,126.63334 -0.22923,33.0077"
       id="path14-2"
       sodipodi:nodetypes="cc" /><path
       style="fill:#000000;fill-opacity:0;stroke:#185ead;stroke-width:2.07302;stroke-linecap:butt;stroke-linejoin:round;stroke-dasharray:none;stroke-opacity:1;marker-end:url(#ArrowWideHeavy-9-7)"
       d="m 238.08847,127.51685 -0.22922,33.0077"
       id="path14-2-9"
       sodipodi:nodetypes="cc" /><path
       style="fill:#000000;fill-opacity:0;stroke:#185ead;stroke-width:2.07302;stroke-linecap:butt;stroke-linejoin:round;stroke-dasharray:none;stroke-opacity:1;marker-end:url(#ArrowWideHeavy-1-3)"
       d="m 136.22745,161.69579 -0.22922,-33.00771"
       id="path14-5-2"
       sodipodi:nodetypes="cc" /><path
       style="fill:#000000;fill-opacity:0;stroke:#185ead;stroke-width:2.07302;stroke-linecap:butt;stroke-linejoin:round;stroke-dasharray:none;stroke-opacity:1;marker-end:url(#ArrowWideHeavy-1-3-3)"
       d="m 169.09775,108.05993 44.82988,0.38142"
       id="path14-5-2-6"
       sodipodi:nodetypes="cc" /><path
       style="fill:#000000;fill-opacity:0;stroke:#185ead;stroke-width:2.07302;stroke-linecap:butt;stroke-linejoin:round;stroke-dasharray:none;stroke-opacity:1;marker-end:url(#ArrowWideHeavy-1-3-3-3)"
       d="m 62.103606,108.29393 27.973241,0.38142"
       id="path14-5-2-6-1"
       sodipodi:nodetypes="cc" /><path
       style="fill:#000000;fill-opacity:0;stroke:#185ead;stroke-width:2.07302;stroke-linecap:butt;stroke-linejoin:round;stroke-dasharray:none;stroke-opacity:1;marker-end:url(#ArrowWideHeavy-1-3-3-4)"
       d="m 163.79705,189.01026 44.82989,0.38142"
       id="path14-5-2-6-7"
       sodipodi:nodetypes="cc" /></g><style
     type="text/css"
     id="style1">
	.st0{fill:#0088DA;}
	.st1{fill:#E2B058;}
	.st2{opacity:0.9;fill:#FFFFFF;enable-background:new    ;}
	.st3{fill:none;}
	.st4{opacity:0.25;fill:url(#SVGID_1_);enable-background:new    ;}
	.st5{fill:#0078BE;}
</style></svg>
